<svg xmlns="http://www.w3.org/2000/svg" viewBox="0 0 32 32" id="report">
  <path d="M8.053,20.724a.5.5,0,0,0,.332.263A.516.516,0,0,0,8.5,21a.5.5,0,0,0,.3-.1l4-3a.5.5,0,1,0-.6-.8L8.68,19.74l-.732-1.464a.5.5,0,0,0-.895.447Zm0-7a.5.5,0,0,0,.332.263A.516.516,0,0,0,8.5,14a.5.5,0,0,0,.3-.1l4-3a.5.5,0,1,0-.6-.8L8.68,12.74l-.732-1.464a.5.5,0,0,0-.895.447Zm4.838,10.464a.5.5,0,0,0-.7-.078L10,25.859l-2.187-1.75a.5.5,0,0,0-.625.781L9.2,26.5,7.188,28.109a.5.5,0,0,0,.625.781L10,27.141l2.188,1.75a.5.5,0,1,0,.625-.781L10.8,26.5l2.012-1.609A.5.5,0,0,0,12.891,24.188ZM8.053,6.724a.5.5,0,0,0,.332.263A.516.516,0,0,0,8.5,7a.5.5,0,0,0,.3-.1l4-3a.5.5,0,1,0-.6-.8L8.68,5.74,7.947,4.276a.5.5,0,1,0-.895.447ZM15.5,5h3a.5.5,0,0,0,0-1h-3a.5.5,0,0,0,0,1Zm0,2h3a.5.5,0,0,0,0-1h-3a.5.5,0,0,0,0,1Zm9,20h-9a.5.5,0,0,0,0,1h9a.5.5,0,0,0,0-1ZM15,11.5a.5.5,0,0,0,.5.5h9a.5.5,0,0,0,0-1h-9A.5.5,0,0,0,15,11.5ZM24.5,25h-9a.5.5,0,0,0,0,1h9a.5.5,0,0,0,0-1Zm0-12h-9a.5.5,0,0,0,0,1h9a.5.5,0,0,0,0-1Zm3.061-6.146L21.146.439A1.511,1.511,0,0,0,20.086,0H6.5A2.5,2.5,0,0,0,4,2.5v27A2.5,2.5,0,0,0,6.5,32h19A2.5,2.5,0,0,0,28,29.5V7.915A1.491,1.491,0,0,0,27.561,6.854ZM21,1.707,26.292,7H22.5A1.5,1.5,0,0,1,21,5.5ZM27,29.5A1.5,1.5,0,0,1,25.5,31H6.5A1.5,1.5,0,0,1,5,29.5V2.5A1.5,1.5,0,0,1,6.5,1H20V5.5A2.5,2.5,0,0,0,22.5,8H27ZM24.5,20h-9a.5.5,0,0,0,0,1h9a.5.5,0,0,0,0-1Zm0-2h-9a.5.5,0,0,0,0,1h9a.5.5,0,0,0,0-1Z" fill="#ffffff" class="color000000 svgShape"></path>
</svg>
